# xmcd
#
# Track frame offsets:
#	150
#	14205
#	27936
#	43143
#	59547
#	76160
#	92288
#	102264
#	121477
#	137724
#	152745
#	173404
#	192498
#	209926
#	224655
#	240181
#	258916
#	278492
#	293710
#	316236
#
# Disc length: 4500 seconds
#
# Revision: 0
# Processed by: cddbd v1.5.2PL0 Copyright (c) Steve Scherf et al.
# Submitted via: EZCDAudioConverter 4.0.5.1
#
DISCID=1f119214
DTITLE=Vários - Mistura Sertanejo - 001
DYEAR=2004
DGENRE=Sertanejo
TTITLE0=Chico Rey and Paraná Feat. Leonardo - Alma transparente
TTITLE1=Alan and Aladim - Liguei pra dizer que te amo
TTITLE2=Tibagi and Miltinho - Pombinha Branca (Vola Colomba)
TTITLE3=Cleiton and Cristiane - Eu Não Sou Brinquedo Seu
TTITLE4=Duduca and Dalvan - Rastros na Areia
TTITLE5=Chrystian and Ralf - Brigas
TTITLE6=As Marcianas - Assim não Presta
TTITLE7=Ataíde and Alexandre - Laço Aberto
TTITLE8=Irmãs Galvão - Cheiro De Relva
TTITLE9=Joaquim and Manuel - Boate Azul
TTITLE10=Lourenço e Lourival - Menina da Aldeia
TTITLE11=Pena Branca e Xavantinho - O Cio da Terra
TTITLE12=Ronaldo Viola and Praiano - Desatino
TTITLE13=Chitãozinho and Xororó - Se Deus Me Ouvisse
TTITLE14=Sérgio Reis - Canoeiro
TTITLE15=Daniel - Vinho Verde
TTITLE16=Roberto Carlos - O Baile da Fazenda
TTITLE17=Edson and Hudson - Eu Nao Sei Dizer Que Eu Nao Te Amo (I Can'T Unlove Y
TTITLE17=ou)
TTITLE18=Roberto Carlos and Chitãozinho and Xororó - Arrasta uma Cadeira
TTITLE19=Chitãozinho and Xororó e Zé Ramalho - Sinônimo
EXTD=
EXTT0=
EXTT1=
EXTT2=
EXTT3=
EXTT4=
EXTT5=
EXTT6=
EXTT7=
EXTT8=
EXTT9=
EXTT10=
EXTT11=
EXTT12=
EXTT13=
EXTT14=
EXTT15=
EXTT16=
EXTT17=
EXTT18=
EXTT19=
PLAYORDER=
